HIERARCHY
ROOT Hips
{
	OFFSET	0.00	0.00	0.00
	CHANNELS 6 Xposition Yposition Zposition Zrotation Xrotation Yrotation
	JOINT Spine
	{
		OFFSET	 0.00	0.01	 0.00
		CHANNELS 3 Zrotation Xrotation Yrotation
		JOINT Spine1
		{
			OFFSET	 0.00	 2.45913012437421	 0.00
			CHANNELS 3 Zrotation Xrotation Yrotation
            JOINT Neck
            {
                OFFSET	 0.00	 2.48462964506057	 0.00
                CHANNELS 3 Zrotation Xrotation Yrotation
                JOINT Head
                {
                    OFFSET	 0.00	 0.927524780924562	 0.00
                    CHANNELS 3 Zrotation Xrotation Yrotation
                    End Site 
                    {
                        OFFSET	 0.00	 1.14999962169752	 0.00
                    }
                }
            }
			JOINT LeftShoulder
			{
				OFFSET	 0.00	 2.48462964506057	 0.00
				CHANNELS 3 Zrotation Xrotation Yrotation
				JOINT LeftUpArm
				{
					OFFSET	 0.00	 1.24881979654096	 0.00
					CHANNELS 3 Zrotation Xrotation Yrotation
					JOINT LeftForeArm
					{
						OFFSET	 0.00	2.59758046908119	 0.00
						CHANNELS 3 Zrotation Xrotation Yrotation
						JOINT LeftHand
						{
							OFFSET	 0.00	2.45542024364365	 0.00
							CHANNELS 3 Zrotation Xrotation Yrotation
							JOINT LeftHandThumb 
							{
								OFFSET	 0.00	0.00	 0.00
								CHANNELS 3 Zrotation Xrotation Yrotation
								End Site
								{
									OFFSET	 0.00	0.00	1.00000003353624
								}
							}
							JOINT L_Wrist_End 
							{
								OFFSET	 0.00	0.99999967115358	 0.00
								CHANNELS 3 Zrotation Xrotation Yrotation
								End Site 
								{
									OFFSET	 0.00	 0.00	 0.00
								}
							}
						}
					}
				}
			}
			JOINT RightShoulder
			{
				OFFSET	 0.00	 2.48462964506057	 0.00
				CHANNELS 3 Zrotation Xrotation Yrotation
				JOINT RightUpArm
				{
					OFFSET	 0.00	 1.24881979654096	 0.00
					CHANNELS 3 Zrotation Xrotation Yrotation
					JOINT RightForeArm
					{
						OFFSET	 0.00	2.59758046908119	 0.00
						CHANNELS 3 Zrotation Xrotation Yrotation
						JOINT RightHand
						{
							OFFSET	 0.00	2.45542024364365	 0.00
							CHANNELS 3 Zrotation Xrotation Yrotation
							JOINT RightHandThumb 
							{
								OFFSET	 0.00	0.00	 0.00
								CHANNELS 3 Zrotation Xrotation Yrotation
								End Site
								{
									OFFSET	 0.00	0.00	1.00000003353624
								}
							}
							JOINT R_Wrist_End 
							{
								OFFSET	 0.00	0.99999967115358	 0.00
								CHANNELS 3 Zrotation Xrotation Yrotation
								End Site 
								{
									OFFSET	 0.00	 0.00	 0.00
								}
							}
						}
					}
				}
			}
		}
	}
	JOINT LeftUpLeg
	{
		OFFSET	 1.2719394002717	 0.00	 0.00
		CHANNELS 3 Zrotation Xrotation Yrotation
		JOINT LeftLowLeg
		{
			OFFSET	 0.00	-4.3429100912261	 0.00
			CHANNELS 3 Zrotation Xrotation Yrotation
			JOINT LeftFoot
			{
				OFFSET	 0.00	-4.48767017425826	 0.00
				CHANNELS 3 Zrotation Xrotation Yrotation
				JOINT LeftToeBase
                {
                    OFFSET	 0.00	0.00	 1.51507020887566
                    CHANNELS 3 Zrotation Xrotation Yrotation
                    End Site 
                    {
                        OFFSET	 0.00	0.00	 0.75000010571191
                    }
                }
			}
		}
	}
	JOINT RightUpLeg
	{
		OFFSET	 -1.2719393604653	 0.00	 0.00
		CHANNELS 3 Zrotation Xrotation Yrotation
		JOINT RightLowLeg
		{
			OFFSET	 0.00	-4.3429100912261	 0.00
			CHANNELS 3 Zrotation Xrotation Yrotation
			JOINT RightFoot
			{
				OFFSET	 0.00	-4.48767017425826	 0.00
				CHANNELS 3 Zrotation Xrotation Yrotation
				JOINT RightToeBase
                {
                    OFFSET	 0.00	0.00	 1.51507020887566
                    CHANNELS 3 Zrotation Xrotation Yrotation
                    End Site 
                    {
                        OFFSET	 0.00	0.00	 0.749999965609858
                    }
                }   
			}
		}
	}
}
MOTION 
Frames:	8 
Frame Time: 0.02 
 0.43769901275634765 -3.2057000732421876 9.395700073242187 -162.326 71.0345 165.851 3.36681 -29.9897 -1.15206 1.09008 6.88906 -0.45007 8.98473 31.6237 -0.141197 -43.7957 -76.6675 -31.8851 -120.548996 1.1014 10.4448 -38.9661 8.85641 -345.479 0.0 24.6913 0.0 15.6842 -10.3374 374.235 0.0 0.0 0.0 0.0 0.0 0.0 120.2216 -1.7335 -4.00932 39.0516 6.18869 -6.68551 0.0 10.6567 0.0 -9.5826 -10.348 4.18813 0.0 0.0 0.0 0.0 0.0 0.0 -0.318365 -11.9844 -20.9686 0.0 4.11366 0.0 1.87552 -2.4608002 21.331 0.0 -11.37456 0.0 9.92574 -11.6166 26.0577 0.0 3.62533 0.0 2.01318 3.908 -26.7358 0.0 -17.99211 0.0 
  0.43477699279785154 -3.206940002441406 9.395980224609374 -162.422 71.0221 165.83 3.35299 -29.9912 -1.06429 1.12305 6.94019 -0.318542 9.0465 31.6051 -0.242113 -44.3119 -76.7333 -32.5034 -120.4243 1.05241 10.3672 -39.3734 8.65582 -344.497 0.0 25.1034 0.0 15.3479 -10.1699 374.296 0.0 0.0 0.0 0.0 0.0 0.0 120.2338 -1.72931 -4.03419 39.7124 6.20159 -6.25794 0.0 10.9503 0.0 -8.33754 -11.8866 6.63782 0.0 0.0 0.0 0.0 0.0 0.0 -0.303175 -11.9749 -20.8948 0.0 4.10334 0.0 1.88826 -2.4641 21.3845 0.0 -11.38183 0.0 9.93041 -11.6136 26.0478 0.0 3.58995 0.0 1.98755 3.9624004 -26.6171 0.0 -18.00596 0.0 
  0.43125099182128906 -3.208489990234375 9.395919799804688 -162.493 71.0262 165.85 3.24994 -29.9784 -1.0598 1.25407 6.98858 -0.183851 8.95209 31.6077 -0.212491 -44.9727 -76.7906 -33.3663 -120.4273 1.03269 10.3 -39.7123 8.43655 -343.127 0.0 25.4252 0.0 14.9117 -10.3541 374.302 0.0 0.0 0.0 0.0 0.0 0.0 120.2232 -1.757 -4.05743 40.3053 6.10371 -7.12631 0.0 11.5599 0.0 -6.53132 -12.5778 6.79766 0.0 0.0 0.0 0.0 0.0 0.0 -0.289365 -11.9524 -20.9188 0.0 4.09008 0.0 1.87904 -2.4582996 21.4351 0.0 -11.41525 0.0 9.92373 -11.5797 25.9939 0.0 3.52859 0.0 1.93677 4.0114 -26.54 0.0 -18.00758 0.0 
  0.42861099243164064 -3.2099099731445313 9.395490112304687 -162.528 70.9981 165.905 3.15 -29.9705 -1.08037 1.37748 6.99383 -0.0845408 8.85715 31.6137 -0.191576 -45.6694 -76.8394 -34.2564 -120.5167 1.00059 10.2751 -40.0437 8.2511 -341.708 0.0 25.5379 0.0 14.3705 -10.5766 374.456 0.0 0.0 0.0 0.0 0.0 0.0 120.2203 -1.78535 -4.138 40.805 5.89836 -9.39939 0.0 12.3489 0.0 -4.0625 -12.4374 5.81502 0.0 0.0 0.0 0.0 0.0 0.0 -0.279329 -11.9711 -20.9722 0.0 4.07847 0.0 1.86011 -2.4675999 21.4603 0.0 -11.40529 0.0 9.9158 -11.5727 25.8822 0.0 3.46205 0.0 1.91814 4.0304003 -26.4507 0.0 -18.01401 0.0 
  0.42683700561523436 -3.209630126953125 9.3947998046875 -162.574 70.7712 166.085 3.06484 -30.125 -1.16463 1.48777 6.96217 -0.0773024 8.77896 31.6148 -0.19092 -46.3528 -76.8772 -35.0404 -120.6288 0.96655 10.2531 -40.5004 8.11213 -340.606 0.0 25.3041 0.0 13.5535 -10.5365 375.419 0.0 0.0 0.0 0.0 0.0 0.0 120.2251 -1.74073 -4.27167 41.2293 5.56604 -12.718 0.0 13.4308 0.0 -1.69015 -11.7305 4.38126 0.0 0.0 0.0 0.0 0.0 0.0 -0.262608 -12.23 -21.1283 0.0 4.1089 0.0 1.8503 -2.4904995 21.4645 0.0 -11.408421 0.0 9.92807 -11.7686 25.7359 0.0 3.39705 0.0 1.90659 4.0326996 -26.3948 0.0 -17.99777 0.0 
  0.4242689895629883 -3.2123599243164063 9.394619750976563 -162.561 70.781 166.148 2.9467 -30.1253 -1.2458 1.60117 7.03146 -0.038172 8.67823 31.616 -0.129779 -47.0192 -76.9521 -35.8286 -120.7882 0.938193 10.2983 -40.9853 8.02444 -339.855 0.0 24.8705 0.0 12.4098 -10.594 377.128 0.0 0.0 0.0 0.0 0.0 0.0 120.231705 -1.65973 -4.40049 41.6021 5.17225 -16.5852 0.0 14.6497 0.0 0.983206 -11.0594 1.68309 0.0 0.0 0.0 0.0 0.0 0.0 -0.252846 -12.1957 -21.1271 0.0 4.06737 0.0 1.84928 -2.4689007 21.4062 0.0 -11.42307 0.0 9.92049 -11.7243 25.6653 0.0 3.3559 0.0 1.88352 4.0375996 -26.4027 0.0 -18.00218 0.0 
  0.4225070190429687 -3.2138101196289064 9.39447021484375 -162.474 70.7633 166.224 2.86153 -30.1093 -1.3377 1.64096 7.04995 -0.0568943 8.68175 31.6269 -0.136444 -47.5957 -77.0469 -36.4478 -120.9318 0.922665 10.3576 -41.5299 7.91625 -339.209 0.0 24.3052 0.0 11.3107 -10.6892 378.127 0.0 0.0 0.0 0.0 0.0 0.0 120.2568 -1.55887 -4.59968 41.8939 4.69471 -20.7517 0.0 16.1855 0.0 3.21938 -10.1632 1.38283 0.0 0.0 0.0 0.0 0.0 0.0 -0.243403 -12.2239 -21.2243 0.0 4.07342 0.0 1.88184 -2.4433994 21.3638 0.0 -11.43424 0.0 9.92518 -11.7174 25.6478 0.0 3.33408 0.0 1.90164 4.0102997 -26.5142 0.0 -17.97664 0.0 
  0.4192879867553711 -3.224590148925781 9.3943701171875 -162.268 71.1124 166.044 2.72387 -29.9312 -1.42258 1.74536 7.28402 -0.0152017 8.66432 31.5347 -0.137357 -47.4899 -77.0292 -36.3875 -121.0372 0.914821 10.4239 -42.1738 7.78241 -338.541 0.0 23.6613 0.0 10.281 -10.9717 379.045 0.0 0.0 0.0 0.0 0.0 0.0 120.2986 -1.45523 -4.88119 41.9824 4.23537 -25.0771 0.0 18.0383 0.0 5.30082 -9.78673 -0.297167 0.0 0.0 0.0 0.0 0.0 0.0 -0.212422 -11.7184 -21.0881 0.0 3.88537 0.0 1.9388 -2.3719997 21.2979 0.0 -11.429029 0.0 9.90677 -11.2759 25.8441 0.0 3.288 0.0 1.90474 3.9932003 -26.7618 0.0 -17.98245 0.0 
